# xmcd
#
# Track frame offsets:
#	150
#	19487
#	40102
#	67492
#	93285
#	111007
#	142502
#	162950
#	176415
#	197365
#
# Disc length: 2905 seconds
#
# Revision: 2
# Processed by: cddbd v1.5.2PL0 Copyright (c) Steve Scherf et al.
# Submitted via: dBpowerAMP V4.0
#
DISCID=7d0b570a
DTITLE=Jelly Roll Kings - Off Yonder Wall
DYEAR=1997
DGENRE=Blues
TTITLE0=Frank Frost Blues
TTITLE1=That's Alright Mama
TTITLE2=Look Over Yonder Wall
TTITLE3=So Lonesome
TTITLE4=Baby Please Don't Go
TTITLE5=Fishin' Musician
TTITLE6=Fat Back
TTITLE7=Sitting On Top Of The World
TTITLE8=Have Mercy Baby
TTITLE9=I'm A Big Boy Now
EXTD=
EXTT0=
EXTT1=
EXTT2=
EXTT3=
EXTT4=
EXTT5=
EXTT6=
EXTT7=
EXTT8=
EXTT9=
PLAYORDER=
